<?xml version="1.0" encoding="UTF-8"?>
<svg xmlns="http://www.w3.org/2000/svg" xmlns:xlink="http://www.w3.org/1999/xlink" width="99px" height="77px" viewBox="0 0 99 77" version="1.1">
<g id="surface1">
<path style=" stroke:none;fill-rule:nonzero;fill:rgb(14.901961%,14.901961%,14.901961%);fill-opacity:1;" d="M 84.042969 17.179688 L 84.261719 17.179688 C 84.886719 17.179688 85.441406 17.46875 85.8125 17.914062 C 94.980469 27.414062 99.792969 48.039062 98.722656 61.84375 C 98.425781 65.671875 97.679688 69.039062 96.449219 71.578125 C 95.050781 74.476562 93.035156 76.375 90.335938 76.878906 C 86.894531 77.519531 82.597656 75.6875 77.429688 70.390625 C 76.761719 69.710938 76.074219 69.023438 75.367188 68.316406 C 72.953125 65.929688 70.414062 63.414062 68.269531 60.378906 L 30.730469 60.378906 C 28.578125 63.4375 26.035156 65.953125 23.617188 68.34375 C 22.917969 69.039062 22.226562 69.71875 21.570312 70.390625 C 16.402344 75.6875 12.105469 77.519531 8.664062 76.878906 C 5.964844 76.375 3.941406 74.476562 2.550781 71.578125 C 1.320312 69.03125 0.574219 65.671875 0.277344 61.84375 C -0.792969 47.976562 4.070312 27.226562 13.308594 17.785156 C 13.703125 17.378906 14.21875 17.179688 14.738281 17.179688 L 14.738281 17.171875 L 14.964844 17.171875 C 16.097656 15.601562 17.503906 14.339844 19.085938 13.382812 C 21.488281 11.933594 24.285156 11.214844 27.066406 11.214844 C 29.855469 11.214844 32.648438 11.933594 35.042969 13.382812 C 36.621094 14.332031 38.027344 15.59375 39.140625 17.164062 L 45.5 17.164062 C 45.007812 5.089844 48.34375 2.046875 53.269531 1.707031 C 55.050781 1.585938 56.941406 1.902344 58.917969 2.234375 C 62.652344 2.855469 66.785156 3.542969 69.714844 0.589844 C 70.503906 -0.203125 71.773438 -0.203125 72.5625 0.589844 C 73.347656 1.382812 73.347656 2.664062 72.5625 3.457031 C 68.175781 7.882812 62.976562 7.015625 58.273438 6.230469 C 56.53125 5.9375 54.875 5.664062 53.535156 5.746094 C 50.875 5.921875 49.105469 8.15625 49.523438 17.171875 L 59.867188 17.171875 C 60.992188 15.601562 62.40625 14.332031 63.980469 13.382812 C 66.382812 11.933594 69.179688 11.214844 71.949219 11.214844 C 74.722656 11.214844 77.519531 11.941406 79.921875 13.382812 C 81.503906 14.339844 82.917969 15.601562 84.042969 17.179688 Z M 84.042969 17.179688 "/>
<path style=" stroke:none;fill-rule:nonzero;fill:rgb(0%,0%,0%);fill-opacity:1;" d="M 75.179688 23.523438 C 76.480469 24.832031 77.132812 26.539062 77.132812 28.257812 C 77.132812 29.964844 76.480469 31.671875 75.179688 32.980469 L 75.171875 32.988281 C 73.871094 34.300781 72.175781 34.957031 70.480469 34.957031 C 68.785156 34.957031 67.089844 34.300781 65.789062 32.988281 L 65.78125 32.980469 C 64.476562 31.671875 63.828125 29.964844 63.828125 28.257812 C 63.828125 26.539062 64.476562 24.832031 65.78125 23.523438 C 67.074219 22.21875 68.777344 21.5625 70.480469 21.5625 C 72.175781 21.5625 73.871094 22.21875 75.171875 23.523438 Z M 75.179688 23.523438 "/>
<path style=" stroke:none;fill-rule:nonzero;fill:rgb(100%,83.529412%,30.980392%);fill-opacity:1;" d="M 73.46875 25.246094 C 75.125 26.914062 75.125 29.597656 73.46875 31.265625 C 71.8125 32.933594 69.144531 32.933594 67.492188 31.265625 C 65.835938 29.597656 65.835938 26.914062 67.492188 25.246094 C 69.136719 23.59375 71.8125 23.59375 73.46875 25.246094 Z M 73.46875 25.246094 "/>
<path style=" stroke:none;fill-rule:nonzero;fill:rgb(0%,0%,0%);fill-opacity:1;" d="M 65.03125 32.398438 C 65.089844 32.457031 65.136719 32.511719 65.183594 32.570312 C 66.382812 33.855469 66.984375 35.496094 66.984375 37.132812 C 66.984375 38.839844 66.332031 40.546875 65.03125 41.859375 L 65.023438 41.867188 L 65.03125 41.875 C 63.730469 43.183594 62.035156 43.839844 60.332031 43.839844 C 58.628906 43.839844 56.933594 43.183594 55.632812 41.875 C 54.328125 40.5625 53.679688 38.855469 53.679688 37.140625 C 53.679688 35.425781 54.328125 33.71875 55.632812 32.40625 L 55.640625 32.398438 C 55.695312 32.34375 55.75 32.292969 55.808594 32.238281 C 57.085938 31.039062 58.707031 30.441406 60.332031 30.441406 C 62.027344 30.441406 63.722656 31.097656 65.023438 32.398438 Z M 65.03125 32.398438 "/>
<path style=" stroke:none;fill-rule:nonzero;fill:rgb(12.941176%,58.823529%,95.294118%);fill-opacity:1;" d="M 63.320312 34.121094 C 64.976562 35.789062 64.976562 38.476562 63.320312 40.144531 C 61.664062 41.808594 58.996094 41.808594 57.34375 40.144531 C 55.6875 38.476562 55.6875 35.789062 57.34375 34.121094 C 58.996094 32.464844 61.671875 32.464844 63.320312 34.121094 Z M 63.320312 34.121094 "/>
<path style=" stroke:none;fill-rule:nonzero;fill:rgb(0%,0%,0%);fill-opacity:1;" d="M 85.320312 32.398438 C 86.621094 33.710938 87.273438 35.417969 87.273438 37.132812 C 87.273438 38.847656 86.621094 40.554688 85.320312 41.867188 C 84.019531 43.175781 82.324219 43.832031 80.621094 43.832031 C 78.925781 43.832031 77.230469 43.175781 75.929688 41.867188 L 75.917969 41.859375 L 75.910156 41.867188 C 74.609375 40.554688 73.960938 38.847656 73.960938 37.132812 C 73.960938 35.417969 74.609375 33.710938 75.910156 32.398438 C 77.214844 31.089844 78.910156 30.433594 80.613281 30.433594 C 82.316406 30.433594 84.019531 31.097656 85.320312 32.398438 Z M 85.320312 32.398438 "/>
<path style=" stroke:none;fill-rule:nonzero;fill:rgb(95.686275%,26.27451%,21.176471%);fill-opacity:1;" d="M 83.609375 34.121094 C 85.265625 35.789062 85.265625 38.476562 83.609375 40.144531 C 81.953125 41.808594 79.285156 41.808594 77.632812 40.144531 C 75.976562 38.476562 75.976562 35.789062 77.632812 34.121094 C 79.285156 32.464844 81.953125 32.464844 83.609375 34.121094 Z M 83.609375 34.121094 "/>
<path style=" stroke:none;fill-rule:nonzero;fill:rgb(0%,0%,0%);fill-opacity:1;" d="M 75.179688 42.085938 C 76.480469 43.394531 77.132812 45.101562 77.132812 46.816406 C 77.132812 48.527344 76.480469 50.234375 75.179688 51.542969 L 75.171875 51.550781 L 75.179688 51.558594 C 73.878906 52.871094 72.183594 53.527344 70.480469 53.527344 C 68.777344 53.527344 67.082031 52.871094 65.78125 51.558594 C 65.722656 51.503906 65.675781 51.445312 65.625 51.390625 C 64.429688 50.101562 63.828125 48.460938 63.828125 46.828125 C 63.828125 45.109375 64.476562 43.402344 65.78125 42.09375 C 65.835938 42.035156 65.882812 41.988281 65.949219 41.9375 C 67.226562 40.734375 68.847656 40.132812 70.480469 40.132812 C 72.175781 40.132812 73.871094 40.789062 75.171875 42.09375 L 75.179688 42.09375 Z M 75.179688 42.085938 "/>
<path style=" stroke:none;fill-rule:nonzero;fill:rgb(29.803922%,68.627451%,31.372549%);fill-opacity:1;" d="M 73.46875 43.808594 C 75.125 45.476562 75.125 48.160156 73.46875 49.828125 C 71.8125 51.496094 69.144531 51.496094 67.492188 49.828125 C 65.835938 48.160156 65.835938 45.476562 67.492188 43.808594 C 69.136719 42.15625 71.8125 42.15625 73.46875 43.808594 Z M 73.46875 43.808594 "/>
<path style=" stroke:none;fill-rule:evenodd;fill:rgb(100%,100%,100%);fill-opacity:1;" d="M 27.042969 25.335938 C 29.566406 25.335938 31.621094 27.414062 31.621094 29.945312 L 31.621094 35.335938 L 36.972656 35.335938 C 39.496094 35.335938 41.554688 37.414062 41.554688 39.949219 C 41.554688 42.488281 39.488281 44.5625 36.972656 44.5625 L 31.621094 44.5625 L 31.621094 49.949219 C 31.621094 52.492188 29.554688 54.5625 27.042969 54.5625 C 24.519531 54.5625 22.460938 52.480469 22.460938 49.949219 L 22.460938 44.5625 L 17.109375 44.5625 C 14.585938 44.5625 12.53125 42.480469 12.53125 39.949219 C 12.53125 37.40625 14.59375 35.335938 17.109375 35.335938 L 22.460938 35.335938 L 22.460938 29.945312 C 22.460938 27.414062 24.519531 25.335938 27.042969 25.335938 Z M 27.042969 25.335938 "/>
<path style=" stroke:none;fill-rule:evenodd;fill:rgb(14.901961%,14.901961%,14.901961%);fill-opacity:1;" d="M 39.472656 40.117188 L 36.554688 43.054688 L 36.554688 37.179688 Z M 27.1875 27.746094 L 30.101562 30.683594 L 24.269531 30.683594 Z M 14.910156 40.117188 L 17.824219 43.054688 L 17.824219 37.179688 Z M 27.1875 52.480469 L 30.101562 49.546875 L 24.269531 49.546875 Z M 27.1875 52.480469 "/>
</g>
</svg>
